<svg width="90" height="90" viewBox="0 0 90 90" fill="none" xmlns="http://www.w3.org/2000/svg">
<g filter="url(#filter0_d_512_332)">
<circle cx="45" cy="35" r="20" fill="url(#paint0_radial_512_332)"/>
</g>
<path d="M52.2578 30.4219C52.7266 30.8906 53 31.5156 53 32.1797V43C53 44.4062 51.8672 45.5 50.5 45.5H40.5C39.0938 45.5 38 44.4062 38 43V28C38 26.6328 39.0938 25.5 40.5 25.5H46.3203C46.9844 25.5 47.6094 25.7734 48.0781 26.2422L52.2578 30.4219ZM46.75 26.8672V31.125C46.75 31.4766 47.0234 31.75 47.375 31.75H51.6328C51.5938 31.5938 51.5156 31.4375 51.3594 31.2812L47.2188 27.1406C47.0625 26.9844 46.9062 26.9062 46.75 26.8672ZM51.75 43V33H47.375C46.3203 33 45.5 32.1797 45.5 31.125V26.75H40.5C39.7969 26.75 39.25 27.3359 39.25 28V43C39.25 43.7031 39.7969 44.25 40.5 44.25H50.5C51.1641 44.25 51.75 43.7031 51.75 43ZM41.125 29.25C40.7734 29.25 40.5 28.9766 40.5 28.625C40.5 28.3125 40.7734 28 41.125 28H43.625C43.9375 28 44.25 28.3125 44.25 28.625C44.25 28.9766 43.9375 29.25 43.625 29.25H41.125ZM44.25 31.125C44.25 31.4766 43.9375 31.75 43.625 31.75H41.125C40.7734 31.75 40.5 31.4766 40.5 31.125C40.5 30.8125 40.7734 30.5 41.125 30.5H43.625C43.9375 30.5 44.25 30.8125 44.25 31.125ZM45.8906 36.7891C45.0312 36.6719 44.3281 36.8672 44.25 37.2578C44.2109 37.4531 44.1719 37.6484 45.3828 37.9609L45.6172 38.0391C46.6719 38.3125 48.2344 38.7031 47.9609 40.2656C47.8047 41.0859 47.1016 41.5938 46.0859 41.7109C46.0859 41.75 46.125 41.75 46.125 41.75V42.375C46.125 42.7266 45.8125 43 45.5 43C45.1484 43 44.875 42.7266 44.875 42.375V41.75V41.7109C44.4453 41.6328 44.0156 41.5156 43.625 41.3984L43.4297 41.3203C43.0781 41.2031 42.9219 40.8516 43 40.5391C43.1172 40.2266 43.4688 40.0312 43.7812 40.1484L43.9766 40.1875C44.3281 40.3047 44.7578 40.4219 45.0703 40.5C45.9297 40.6172 46.6328 40.4219 46.7109 40.0312C46.7891 39.7188 46.5938 39.5625 45.3438 39.25L45.0703 39.1719C44.2891 38.9766 42.7266 38.5859 43 37.0234C43.1562 36.2031 43.8594 35.6953 44.875 35.5391C44.875 35.5391 44.875 35.5391 44.875 35.5V34.875C44.875 34.5625 45.1484 34.25 45.5 34.25C45.8125 34.25 46.125 34.5625 46.125 34.875V35.5C46.125 35.5391 46.0859 35.5391 46.0859 35.5781C46.3594 35.6172 46.6719 35.6953 47.0625 35.8125C47.4141 35.9297 47.5703 36.2812 47.4922 36.5938C47.375 36.9062 47.0234 37.1016 46.7109 37.0234C46.4375 36.9062 46.125 36.8281 45.8906 36.7891Z" fill="white"/>
<defs>
<filter id="filter0_d_512_332" x="0" y="0" width="90" height="90" filterUnits="userSpaceOnUse" color-interpolation-filters="sRGB">
<feFlood flood-opacity="0" result="BackgroundImageFix"/>
<feColorMatrix in="SourceAlpha" type="matrix" values="0 0 0 0 0 0 0 0 0 0 0 0 0 0 0 0 0 0 127 0" result="hardAlpha"/>
<feOffset dy="10"/>
<feGaussianBlur stdDeviation="12.5"/>
<feComposite in2="hardAlpha" operator="out"/>
<feColorMatrix type="matrix" values="0 0 0 0 0 0 0 0 0 0 0 0 0 0 0 0 0 0 0.1 0"/>
<feBlend mode="normal" in2="BackgroundImageFix" result="effect1_dropShadow_512_332"/>
<feBlend mode="normal" in="SourceGraphic" in2="effect1_dropShadow_512_332" result="shape"/>
</filter>
<radialGradient id="paint0_radial_512_332" cx="0" cy="0" r="1" gradientUnits="userSpaceOnUse" gradientTransform="translate(45.1527 36.9847) rotate(-134.045) scale(25.9129 29.8365)">
<stop stop-color="#3CBCEB"/>
<stop offset="1" stop-color="#0072B8"/>
</radialGradient>
</defs>
</svg>
