<svg width="13" height="20" viewBox="0 0 13 20" fill="none" xmlns="http://www.w3.org/2000/svg">
<path d="M12.8088 13.5936C12.8088 14.3856 12.6 15.12 12.1824 15.7968C11.7792 16.4592 11.1744 17.0064 10.368 17.4384C9.576 17.856 8.6328 18.0864 7.5384 18.1296V19.8792H6.156V18.108C4.6296 17.9784 3.3984 17.5248 2.4624 16.7472C1.5264 15.9552 1.0296 14.8824 0.972 13.5288H4.9032C4.9896 14.3928 5.4072 14.9472 6.156 15.192V11.7792C5.0328 11.4912 4.1328 11.2104 3.456 10.9368C2.7936 10.6632 2.2104 10.224 1.7064 9.6192C1.2024 9.0144 0.9504 8.1864 0.9504 7.1352C0.9504 5.8248 1.4328 4.7736 2.3976 3.9816C3.3768 3.1896 4.6296 2.7432 6.156 2.6424V0.892799H7.5384V2.6424C9.0504 2.7576 10.2456 3.1968 11.124 3.96C12.0024 4.7232 12.492 5.7816 12.5928 7.1352H8.64C8.5536 6.3576 8.1864 5.8536 7.5384 5.6232V8.9712C8.7336 9.3024 9.6552 9.5976 10.3032 9.8568C10.9512 10.116 11.5272 10.548 12.0312 11.1528C12.5496 11.7432 12.8088 12.5568 12.8088 13.5936ZM4.86 6.9624C4.86 7.3224 4.968 7.6248 5.184 7.8696C5.4144 8.1144 5.7384 8.3304 6.156 8.5176V5.5152C5.7528 5.5872 5.436 5.7456 5.2056 5.9904C4.9752 6.2208 4.86 6.5448 4.86 6.9624ZM7.5384 15.2568C7.9704 15.1848 8.3088 15.012 8.5536 14.7384C8.8128 14.4648 8.9424 14.1264 8.9424 13.7232C8.9424 13.3488 8.82 13.0464 8.5752 12.816C8.3448 12.5712 7.9992 12.3624 7.5384 12.1896V15.2568Z" fill="#291E3A"/>
</svg>
