<svg width="122" height="140" viewBox="0 0 122 140" fill="none" xmlns="http://www.w3.org/2000/svg">
<path id="Union" fill-rule="evenodd" clip-rule="evenodd" d="M76.6218 8.61626C69.6538 13.3619 64.3925 19.5103 61.1019 27.5036H61.0988C61.0007 27.4101 60.9182 27.3405 60.8509 27.2836C60.7391 27.1893 60.669 27.1301 60.6383 27.0554C57.4091 19.3353 52.1724 13.2913 45.2903 8.61012C44.9097 8.35534 44.6242 7.85192 44.4615 7.40376C43.5805 4.95728 41.5116 3.72943 39.2401 4.36484C37.0514 4.97877 35.753 7.11522 36.2134 9.34683C36.6923 11.6767 38.7643 12.9905 41.3029 12.6436C41.8032 12.573 42.454 12.6129 42.8407 12.8799C49.6829 17.6102 54.6004 23.8201 57.2188 31.7796C57.5012 32.6421 57.3907 33.1946 56.6264 33.8546C53.2037 36.8014 53.2713 41.4366 56.5987 44.4264C57.0868 44.8622 57.4644 45.6818 57.4859 46.3357C57.5744 48.9795 57.6329 51.6244 57.6914 54.2692C57.7728 57.9533 57.8543 61.6373 58.0169 65.3181C58.1243 67.7585 57.5565 69.7108 55.948 71.5863C52.6113 75.4847 49.2225 79.2757 44.6058 81.7191C39.0805 84.6414 33.4784 82.6829 31.2499 77.0072C29.9944 73.8087 29.8778 70.5365 30.9675 67.2643C32.7079 62.0337 36.7353 59.1022 41.5454 57.1069C43.1823 56.4277 44.886 55.9122 46.6245 55.3863C47.4157 55.1469 48.2141 54.9053 49.0168 54.6451C49.0168 54.3587 49.0144 54.0643 49.012 53.7644C49.0061 53.0453 49 52.2943 49.026 51.5448C49.0628 50.495 48.5901 50.2402 47.5679 50.1236C46.6849 50.0229 45.7992 49.93 44.9129 49.8371C41.637 49.4936 38.3534 49.1494 35.1667 48.4076C24.8436 46.0011 16.7705 40.2885 11.4263 31.0122C7.10124 23.507 5.32086 15.2896 4.96172 6.7131C4.95338 6.49621 4.99604 6.27649 5.03869 6.05682C5.05882 5.95316 5.07895 5.84951 5.09371 5.74617C5.17496 5.75507 5.24208 5.75833 5.29829 5.76105C5.39713 5.76584 5.46226 5.769 5.51118 5.79835C12.8199 10.3813 20.7242 13.6228 28.8556 16.4131C33.9389 18.1535 38.4757 20.9315 42.1132 24.9435C43.2698 26.2198 44.2886 27.6209 45.3326 29.0566C45.8152 29.7204 46.3033 30.3916 46.8128 31.0613C47.1358 30.9391 47.4725 30.8128 47.8184 30.6831C48.5936 30.3924 49.4152 30.0843 50.2324 29.7659C50.3795 29.7082 50.5137 29.621 50.6909 29.5058C50.7873 29.4431 50.8965 29.3721 51.0274 29.2932C50.7998 28.896 50.5829 28.4995 50.3681 28.1069C49.9139 27.2765 49.4692 26.4635 48.9523 25.6987C43.9274 18.2671 36.7476 13.8254 28.4044 11.0474C21.2614 8.66844 14.3486 5.73696 8.10193 1.53159C5.57564 -0.168975 3.10153 -0.064608 0.298976 0.0643158C0.269623 0.306225 0.234597 0.544129 0.199949 0.779458C0.12952 1.25781 0.060658 1.72553 0.0441985 2.19463C-0.182953 8.6623 0.455527 15.044 2.18986 21.2876C6.42899 36.562 15.5856 47.3057 30.9276 52.2938C32.1468 52.6899 33.3907 53.0133 34.7501 53.3667C35.4238 53.5419 36.1258 53.7244 36.8673 53.9268C36.5737 54.1192 36.3181 54.289 36.0858 54.4432C35.6768 54.7148 35.3405 54.9382 34.9979 55.1516C21.9459 63.2462 22.3173 81.2955 35.578 88.4293C41.8124 91.7843 48.5287 93.2823 55.4354 94.1879C57.0949 94.4057 57.9159 94.4945 58.3296 94.9518C58.7376 95.4029 58.7492 96.2127 58.7782 97.8591C58.8337 101.004 58.9019 104.148 58.9702 107.292C59.0227 109.712 59.0752 112.131 59.122 114.552C59.1406 115.557 59.1355 116.565 59.1302 117.612C59.1276 118.118 59.125 118.633 59.125 119.162C58.7739 119.092 58.4695 119.034 58.1941 118.982C57.757 118.898 57.3931 118.829 57.0316 118.748C53.0318 117.848 49.1273 116.719 45.7477 114.251C39.7895 109.895 39.8294 103.087 45.8551 98.8506C46.3016 98.5376 46.7638 98.2487 47.2753 97.929C47.5163 97.7784 47.7681 97.6209 48.0345 97.4509C47.521 97.3106 47.0218 97.1723 46.5331 97.0369C45.1491 96.6533 43.848 96.2928 42.5368 95.9774C42.2084 95.8976 41.6988 96.048 41.4441 96.2813C37.9723 99.443 35.9403 103.246 36.6186 108.081C37.3645 113.388 40.6613 116.851 45.1307 119.377C49.0843 121.612 53.3879 122.87 57.802 123.767C58.9286 123.994 59.3859 124.436 59.3767 125.679C59.3568 128.659 59.415 131.641 59.4732 134.621C59.4958 135.777 59.5184 136.932 59.5364 138.086C59.5374 138.159 59.5374 138.232 59.5374 138.304C59.5372 139.044 59.537 139.705 60.7427 139.683C61.9767 139.661 62.4648 139.317 62.4034 138.016C62.348 136.868 62.3806 135.715 62.4132 134.561C62.4312 133.926 62.4492 133.291 62.4525 132.656C62.461 130.897 62.4592 129.136 62.4573 127.288C62.4564 126.473 62.4556 125.642 62.4556 124.786C65.4116 125.747 67.7599 126.806 69.3837 128.985C71.7749 132.193 71.2838 135.625 69.8042 139.084C71.6153 139.327 72.7695 138.716 73.6228 137.374C75.0901 135.063 75.5536 132.607 75.0226 129.909C74.1539 125.504 71.293 122.901 67.3547 121.268C66.3328 120.844 65.2863 120.482 64.2232 120.113C63.7375 119.945 63.2483 119.775 62.7564 119.598C62.8663 114.346 62.9737 109.126 63.0818 103.873C63.1428 100.91 63.204 97.9363 63.2659 94.9399C63.733 94.9979 64.169 95.0465 64.5838 95.0927C65.3984 95.1834 66.1313 95.265 66.8574 95.3911C71.2561 96.1555 75.3848 97.5215 78.4575 101.015C81.1127 104.029 81.3276 107.848 79.056 111.169C77.5519 113.37 75.5045 114.954 73.147 116.145C72.409 116.517 71.6558 116.863 70.8825 117.217C70.5075 117.389 70.1278 117.564 69.7428 117.744C70.1332 118.006 70.5094 118.265 70.8776 118.519C71.7921 119.149 72.6572 119.745 73.5676 120.261C74.0311 120.525 74.82 120.639 75.2712 120.424C77.9786 119.138 80.3023 117.324 82.2177 115.006C86.7362 109.533 86.5183 102.51 81.6314 97.3618C77.9878 93.5248 73.3036 91.7813 68.2449 90.845C67.1487 90.6415 66.0438 90.4936 65.0222 90.3569C64.5647 90.2956 64.1238 90.2366 63.708 90.1759V76.2521C64.3095 76.4888 64.6299 76.7908 64.9251 77.0691C64.9975 77.1373 65.0684 77.2041 65.1415 77.2682C66.0968 78.1048 67.0327 78.9696 67.9687 79.8345C70.1096 81.8126 72.2506 83.7909 74.6235 85.4333C80.8487 89.7431 89.4344 89.5773 94.2721 80.7583C98.5634 72.9339 96.6449 63.1172 89.6339 57.199C88.7244 56.4325 87.7534 55.7401 86.7077 54.9943C86.204 54.6351 85.6829 54.2636 85.1431 53.8654C85.3899 53.8032 85.6071 53.7471 85.8057 53.6959C86.1652 53.6032 86.4632 53.5264 86.7638 53.4572C94.5668 51.6584 101.67 48.4199 107.425 42.7473C119.075 31.2669 122.292 16.7998 121.831 1.09878C121.819 0.751909 121.515 0.11036 121.361 0.11343C120.82 0.129172 120.246 0.0998115 119.668 0.07029C118.219 -0.00380168 116.75 -0.0789058 115.732 0.555454C108.494 5.06165 100.863 8.60398 92.7987 11.3206C85.447 13.7947 79.0253 17.7422 74.2275 23.9797C73.3731 25.0883 72.6361 26.289 71.861 27.5518C71.4943 28.149 71.1191 28.7602 70.719 29.3822C71.6627 29.7457 72.512 30.0719 73.3171 30.3812C74.0283 30.6543 74.705 30.9143 75.3817 31.1748C75.5562 30.8715 75.7163 30.5843 75.8693 30.3096C76.1795 29.7531 76.4609 29.2482 76.7753 28.7652C80.9254 22.4111 86.9357 18.5188 93.9498 16.1061C101.645 13.4601 109.095 10.3168 116.039 6.04085C116.198 5.944 116.375 5.875 116.594 5.7894C116.708 5.74477 116.834 5.69562 116.975 5.63566C116.975 5.83977 116.982 6.02639 116.988 6.20072C117 6.54288 117.01 6.8377 116.966 7.12442C116.761 8.46911 116.59 9.82371 116.419 11.1786C116.028 14.2836 115.637 17.3901 114.829 20.3821C111.109 34.1769 102.671 43.7142 88.7499 47.9411C84.1332 49.3439 79.3906 49.9885 74.5744 50.1328C74.4757 50.1357 74.3732 50.1327 74.2705 50.1298C73.7184 50.114 73.1577 50.098 73.1163 50.9831C73.0726 51.9303 73.0186 52.8758 72.9633 53.8441C72.9448 54.1686 72.9261 54.4957 72.9076 54.8262C73.632 55.0042 74.2183 55.1485 74.8015 55.2928C78.8504 56.2966 82.672 57.7976 85.9841 60.4098C92.2155 65.3243 93.5293 73.7565 89.0169 79.9234C87.0585 82.6001 84.0963 83.8341 80.9408 82.8211C78.8442 82.1458 76.7753 81.1113 74.9673 79.8466C70.7374 76.8906 67.4283 72.9891 64.5276 68.753C64.1592 68.2189 63.9996 67.427 64.0119 66.7609C64.1346 59.9218 64.2912 53.0827 64.5153 46.2436C64.5337 45.5928 64.9389 44.7886 65.4269 44.3466C68.5979 41.4765 68.6899 36.737 65.4546 33.9743C64.6074 33.2499 64.4508 32.6483 64.7854 31.6261C67.3792 23.7003 72.3121 17.5703 79.1113 12.883C79.5288 12.5945 80.244 12.6037 80.7965 12.6712C83.2522 12.972 85.2843 11.5784 85.7724 9.178C86.196 7.08452 84.7195 4.87747 82.5247 4.3188C80.4128 3.78162 78.2702 5.06471 77.4905 7.27177C77.3156 7.76597 77.0301 8.33692 76.6218 8.61626ZM58.2993 76.8476V89.8198C58.0138 89.7813 57.728 89.743 57.442 89.7048C53.3069 89.1517 49.1309 88.5931 45.1 87.0571C50.1863 84.5339 54.1031 80.6846 57.8818 76.6573C58.02 76.7187 58.1612 76.7832 58.2993 76.8476ZM52.4793 139.756C50.2078 135.477 50.1127 131.38 53.7594 127.503V127.5C53.3491 127.387 52.9792 127.287 52.6337 127.193C52.1003 127.049 51.6252 126.92 51.1502 126.787L51.1414 126.785C48.145 125.952 48.1225 125.946 47.0952 128.991C45.852 132.675 46.0086 136.11 49.026 138.986C49.9776 139.895 51.0305 140.297 52.4793 139.756Z" fill="white"/>
</svg>
