<svg width="15" height="12" viewBox="0 0 15 12" fill="none" xmlns="http://www.w3.org/2000/svg">
<path d="M12.6484 4.35156C14.1016 5.82812 14.1016 8.19531 12.6484 9.67188C11.1719 11.125 8.80469 11.125 7.32812 9.67188C5.875 8.19531 5.875 5.82812 7.32812 4.35156C8.80469 2.89844 11.1719 2.89844 12.6484 4.35156ZM7.77344 5.59375C6.27344 7.96094 9.03906 10.7266 11.4062 9.22656L7.77344 5.59375ZM12.2031 8.42969C13.7266 6.0625 10.9375 3.29688 8.57031 4.79688L12.2031 8.42969ZM2.875 0.25C4.30469 0.25 5.5 1.44531 5.5 2.875V8.10156C5.5 9.53125 4.30469 10.7031 2.875 10.7031C1.42188 10.7031 0.25 9.55469 0.25 8.10156V2.875C0.25 1.44531 1.42188 0.25 2.875 0.25ZM4.375 5.5V2.875C4.375 0.882812 1.375 0.882812 1.375 2.875V5.5H4.375Z" fill="#705598"/>
</svg>
