<svg width="17" height="19" viewBox="0 0 17 19" fill="none" xmlns="http://www.w3.org/2000/svg">
<path d="M4.5625 0.25C4.84375 0.25 5.125 0.53125 5.125 0.8125V2.5H11.875V0.8125C11.875 0.53125 12.1211 0.25 12.4375 0.25C12.7188 0.25 13 0.53125 13 0.8125V2.5H14.125C15.3555 2.5 16.375 3.51953 16.375 4.75V16C16.375 17.2656 15.3555 18.25 14.125 18.25H2.875C1.60938 18.25 0.625 17.2656 0.625 16V4.75C0.625 3.51953 1.60938 2.5 2.875 2.5H4V0.8125C4 0.53125 4.24609 0.25 4.5625 0.25ZM15.25 7H1.75V16C1.75 16.6328 2.24219 17.125 2.875 17.125H14.125C14.7227 17.125 15.25 16.6328 15.25 16V7ZM14.125 3.625H2.875C2.24219 3.625 1.75 4.15234 1.75 4.75V5.875H15.25V4.75C15.25 4.15234 14.7227 3.625 14.125 3.625Z" fill="#705598"/>
</svg>
