<svg width="23" height="19" viewBox="0 0 23 19" fill="none" xmlns="http://www.w3.org/2000/svg">
<path d="M14.875 6.4375C14.875 9.88281 11.5703 12.625 7.5625 12.625C6.82422 12.625 6.15625 12.5547 5.48828 12.3789C4.50391 13.0469 2.95703 13.75 1.05859 13.75C0.742188 13.75 0.425781 13.5742 0.285156 13.2578C0.179688 12.9414 0.214844 12.5898 0.460938 12.3438C0.460938 12.3438 1.30469 11.4297 1.83203 10.3047C0.847656 9.25 0.25 7.91406 0.25 6.4375C0.25 3.02734 3.51953 0.25 7.5625 0.25C11.5703 0.25 14.875 3.02734 14.875 6.4375ZM7.5625 11.5C10.9727 11.5 13.75 9.25 13.75 6.4375C13.75 3.66016 10.9727 1.375 7.5625 1.375C4.11719 1.375 1.375 3.66016 1.375 6.4375C1.375 7.5625 1.79688 8.65234 2.64062 9.53125L3.16797 10.0938L2.85156 10.7969C2.5 11.5352 2.04297 12.168 1.72656 12.625C3.0625 12.4844 4.15234 11.9219 4.89062 11.4648L5.27734 11.1836L5.76953 11.2891C6.33203 11.4297 6.96484 11.5 7.5625 11.5ZM21.5547 15.5781C22.0117 16.3164 22.5039 16.8438 22.5039 16.8789C22.7148 17.0898 22.7852 17.4414 22.6797 17.7578C22.5391 18.0742 22.2227 18.25 21.9062 18.25C20.7461 18.25 19.7617 18.0039 18.918 17.6523C18.0039 18.0391 17.0195 18.25 16 18.25C12.8008 18.25 10.1641 16.2812 9.42578 13.5742C9.8125 13.5039 10.1992 13.3984 10.5508 13.293C11.1484 15.5078 13.3281 17.125 16 17.125C16.8438 17.125 17.6523 16.9492 18.4609 16.6328L18.8828 16.4219L19.3398 16.5977C19.9727 16.8789 20.6055 17.0547 21.2383 17.125C21.0625 16.8789 20.8164 16.5273 20.6055 16.1758L20.1836 15.5078L20.6406 14.9102C21.2734 14.0664 21.625 13.082 21.625 12.0625C21.625 9.28516 19.0938 7 16 7C15.9648 7 15.9648 7.03516 15.9648 7.03516C15.9648 6.82422 16 6.64844 16 6.4375C16 6.26172 15.9648 6.08594 15.9648 5.91016C15.9648 5.91016 15.9648 5.875 16 5.875C19.7266 5.875 22.75 8.65234 22.75 12.0625C22.75 13.3633 22.293 14.5938 21.5547 15.5781Z" fill="#705598"/>
</svg>
