<svg width="21" height="19" viewBox="0 0 21 19" fill="none" xmlns="http://www.w3.org/2000/svg">
<path d="M20.5898 9.25C20.5898 9.88281 20.0625 10.375 19.4648 10.375H18.3398L18.375 16C18.375 16.1055 18.375 16.2109 18.375 16.2812V16.8438C18.375 17.6523 17.7422 18.25 16.9688 18.25H16.4062C16.3359 18.25 16.3008 18.25 16.2656 18.25C16.2305 18.25 16.1602 18.25 16.125 18.25H14.1562C13.3477 18.25 12.75 17.6523 12.75 16.8438V13.75C12.75 13.1523 12.2227 12.625 11.625 12.625H9.375C8.74219 12.625 8.25 13.1523 8.25 13.75V16.8438C8.25 17.6523 7.61719 18.25 6.84375 18.25H4.875C4.80469 18.25 4.76953 18.25 4.69922 18.25C4.66406 18.25 4.62891 18.25 4.59375 18.25H4.03125C3.22266 18.25 2.625 17.6523 2.625 16.8438V12.9062C2.625 12.9062 2.625 12.8711 2.625 12.8359V10.375H1.5C0.867188 10.375 0.375 9.88281 0.375 9.25C0.375 8.93359 0.480469 8.65234 0.726562 8.40625L9.72656 0.566406C9.97266 0.320312 10.2539 0.25 10.5 0.25C10.7461 0.25 11.0273 0.355469 11.2383 0.53125L20.2031 8.40625C20.4844 8.65234 20.625 8.93359 20.5898 9.25Z" fill="#705598"/>
</svg>
