<svg width="14" height="13" viewBox="0 0 14 13" fill="none" xmlns="http://www.w3.org/2000/svg">
<path d="M12.8125 2.1875C13.0469 2.39844 13.0469 2.75 12.8125 2.96094C12.7188 3.07812 12.5781 3.125 12.4375 3.125C12.2734 3.125 12.1328 3.07812 12.0391 2.96094L11.6875 2.60938L10.7734 3.5L12.0625 4.8125C12.2969 5.02344 12.2969 5.375 12.0625 5.58594C11.9688 5.70312 11.8281 5.75 11.6875 5.75C11.5703 5.75 11.4531 5.72656 11.3594 5.65625L6.15625 10.8359C6.03906 10.9531 5.89844 11 5.75781 11H3.27344L1.9375 12.3359C1.84375 12.4531 1.70312 12.5 1.5625 12.5C1.39844 12.5 1.25781 12.4531 1.16406 12.3594C0.929688 12.125 0.929688 11.7734 1.16406 11.5625L2.5 10.2266V7.74219C2.5 7.60156 2.54688 7.46094 2.66406 7.34375L7.84375 2.14062C7.70312 1.92969 7.70312 1.625 7.91406 1.4375C8.125 1.20312 8.47656 1.20312 8.6875 1.4375L10 2.72656L10.8906 1.8125L10.5156 1.46094C10.2812 1.25 10.2812 0.898438 10.5156 0.6875C10.7266 0.453125 11.0781 0.453125 11.3125 0.6875L12.8125 2.1875ZM5.52344 9.875L10.5391 4.85938L8.64062 2.96094L7.79688 3.80469L8.38281 4.36719C8.52344 4.50781 8.52344 4.76562 8.38281 4.90625C8.3125 4.97656 8.21875 5 8.125 5C8.00781 5 7.91406 4.97656 7.84375 4.90625L7.28125 4.32031L6.29688 5.30469L6.88281 5.86719C7.02344 6.00781 7.02344 6.26562 6.88281 6.40625C6.8125 6.47656 6.71875 6.5 6.625 6.5C6.50781 6.5 6.41406 6.47656 6.34375 6.40625L5.78125 5.82031L4.79688 6.80469L5.38281 7.36719C5.52344 7.50781 5.52344 7.76562 5.38281 7.90625C5.3125 7.97656 5.21875 8 5.125 8C5.00781 8 4.91406 7.97656 4.84375 7.90625L4.28125 7.32031L3.625 7.97656V9.875H5.52344Z" fill="#0172B8"/>
</svg>
