<svg width="19" height="19" viewBox="0 0 19 19" fill="none" xmlns="http://www.w3.org/2000/svg">
<path d="M10.0625 8.47656C10.2383 8.51172 10.6953 8.61719 10.9062 8.65234C11.1875 8.72266 11.3633 9.03906 11.293 9.35547C11.2227 9.63672 10.9062 9.8125 10.5898 9.74219C10.4492 9.70703 9.99219 9.60156 9.81641 9.56641C9.35938 9.49609 9.00781 9.56641 8.72656 9.67188C8.48047 9.8125 8.375 9.95312 8.375 10.0586C8.33984 10.2344 8.375 10.3047 8.375 10.3398C8.41016 10.375 8.44531 10.4453 8.55078 10.5156C8.79688 10.6914 9.14844 10.7969 9.64062 10.9375H9.67578C10.0977 11.0781 10.6602 11.2539 11.0469 11.5352C11.293 11.6758 11.4688 11.9219 11.6094 12.2031C11.75 12.4844 11.75 12.8008 11.7148 13.1523C11.6094 13.75 11.1875 14.1719 10.6602 14.418C10.4844 14.4883 10.2734 14.5586 10.0625 14.5938V14.875C10.0625 15.1914 9.78125 15.4375 9.5 15.4375C9.18359 15.4375 8.9375 15.1914 8.9375 14.875V14.5586C8.58594 14.4883 8.09375 14.3125 7.77734 14.207C7.70703 14.207 7.67188 14.1719 7.60156 14.1719C7.32031 14.0664 7.17969 13.75 7.25 13.4336C7.35547 13.1523 7.67188 12.9766 7.98828 13.082C8.02344 13.1172 8.12891 13.1523 8.19922 13.1523C8.51562 13.293 8.90234 13.3984 9.14844 13.4336C9.60547 13.5039 9.99219 13.4688 10.2383 13.3633C10.4492 13.2578 10.5547 13.1523 10.5898 12.9414C10.625 12.8008 10.5898 12.6953 10.5898 12.6602C10.5547 12.5898 10.4844 12.5195 10.4141 12.4492C10.168 12.2734 9.81641 12.168 9.32422 12.0273L9.25391 11.9922C8.83203 11.8516 8.30469 11.7109 7.91797 11.4297C7.70703 11.2891 7.49609 11.0781 7.35547 10.832C7.25 10.5156 7.21484 10.1992 7.25 9.88281C7.35547 9.28516 7.77734 8.89844 8.26953 8.65234C8.48047 8.58203 8.69141 8.51172 8.9375 8.47656V8.125C8.9375 7.84375 9.18359 7.5625 9.5 7.5625C9.78125 7.5625 10.0625 7.84375 10.0625 8.125V8.47656ZM6.79297 4.50391L4.75391 1.58594C4.36719 1.02344 4.78906 0.25 5.45703 0.25H13.5078C14.1758 0.25 14.5977 1.02344 14.2109 1.58594L12.1719 4.50391C12.4531 4.67969 12.7695 4.89062 13.1211 5.13672C15.2656 6.71875 18.5 9.88281 18.5 14.875C18.5 16.7383 16.9883 18.25 15.125 18.25H3.875C1.97656 18.25 0.5 16.7383 0.5 14.875C0.5 9.88281 3.69922 6.71875 5.84375 5.13672C6.19531 4.89062 6.51172 4.67969 6.79297 4.50391ZM7.39062 5.45312C5.45703 6.68359 1.625 9.70703 1.625 14.875C1.625 16.1406 2.60938 17.125 3.875 17.125H15.125C16.3555 17.125 17.375 16.1406 17.375 14.875C17.375 9.70703 13.5078 6.68359 11.5742 5.45312L11.3984 5.3125H7.56641L7.39062 5.45312ZM11.0117 4.1875L12.9805 1.375H5.98438L7.95312 4.1875H11.0117Z" fill="#B3B2B5"/>
</svg>
