<svg width="17" height="19" viewBox="0 0 17 19" fill="none" xmlns="http://www.w3.org/2000/svg">
<path d="M8.5 9.25C6.00391 9.25 4 7.24609 4 4.75C4 2.28906 6.00391 0.25 8.5 0.25C10.9609 0.25 13 2.28906 13 4.75C13 7.24609 10.9609 9.25 8.5 9.25ZM8.5 1.375C6.63672 1.375 5.125 2.92188 5.125 4.75C5.125 6.61328 6.63672 8.125 8.5 8.125C10.3281 8.125 11.875 6.61328 11.875 4.75C11.875 2.92188 10.3281 1.375 8.5 1.375ZM10.2578 10.9375C13.6328 10.9375 16.375 13.6797 16.375 17.0547C16.375 17.7227 15.8125 18.25 15.1445 18.25H1.82031C1.15234 18.25 0.625 17.7227 0.625 17.0547C0.625 13.6797 3.33203 10.9375 6.70703 10.9375H10.2578ZM15.1445 17.125C15.1797 17.125 15.25 17.0898 15.25 17.0547C15.25 14.3125 13 12.0625 10.2578 12.0625H6.70703C3.96484 12.0625 1.75 14.3125 1.75 17.0547C1.75 17.0898 1.78516 17.125 1.82031 17.125H15.1445Z" fill="#B3B2B5"/>
</svg>
