<svg width="238" height="238" viewBox="0 0 238 238" fill="none" xmlns="http://www.w3.org/2000/svg">
<g id="Group 12">
<g id="Ellipse 1" filter="url(#filter0_d_18_916)">
<circle cx="119" cy="107" r="85" fill="url(#paint0_radial_18_916)"/>
</g>
<path id="Union" fill-rule="evenodd" clip-rule="evenodd" d="M129.257 67.539C124.777 70.5898 121.395 74.5423 119.28 79.6808H119.278C119.215 79.6207 119.162 79.576 119.118 79.5394C119.046 79.4788 119.001 79.4407 118.982 79.3927C116.906 74.4298 113.539 70.5444 109.115 67.5351C108.87 67.3713 108.687 67.0476 108.582 66.7595C108.016 65.1868 106.686 64.3975 105.226 64.806C103.819 65.2006 102.984 66.5741 103.28 68.0087C103.588 69.5064 104.92 70.351 106.552 70.128C106.873 70.0826 107.292 70.1083 107.54 70.2799C111.939 73.3208 115.1 77.3128 116.783 82.4296C116.965 82.9842 116.894 83.3393 116.403 83.7636C114.202 85.658 114.246 88.6377 116.385 90.5597C116.699 90.8399 116.941 91.3668 116.955 91.7871C117.012 93.4867 117.05 95.1869 117.087 96.8872C117.14 99.2555 117.192 101.624 117.296 103.99C117.366 105.559 117 106.814 115.966 108.02C113.821 110.526 111.643 112.963 108.675 114.534C105.123 116.412 101.522 115.153 100.089 111.504C99.2821 109.448 99.2071 107.345 99.9076 105.241C101.026 101.879 103.615 99.9941 106.708 98.7115C107.76 98.2748 108.855 97.9435 109.973 97.6053C110.481 97.4514 110.995 97.2961 111.511 97.1289C111.511 96.9448 111.509 96.7555 111.508 96.5627C111.504 96.1004 111.5 95.6176 111.517 95.1358C111.54 94.461 111.236 94.2972 110.579 94.2222C110.012 94.1575 109.442 94.0978 108.872 94.038C106.767 93.8172 104.656 93.5959 102.607 93.1191C95.9708 91.572 90.781 87.8997 87.3455 81.9363C84.5651 77.1116 83.4205 71.829 83.1897 66.3155C83.1843 66.1761 83.2117 66.0349 83.2391 65.8937C83.2521 65.827 83.265 65.7604 83.2745 65.694C83.3267 65.6997 83.3699 65.7018 83.406 65.7035C83.4696 65.7066 83.5114 65.7086 83.5429 65.7275C88.2414 68.6737 93.3226 70.7575 98.55 72.5512C101.818 73.6701 104.734 75.456 107.073 78.0351C107.816 78.8555 108.471 79.7562 109.142 80.6792C109.453 81.1059 109.766 81.5374 110.094 81.9679C110.301 81.8894 110.518 81.8082 110.74 81.7248C111.239 81.5379 111.767 81.3398 112.292 81.1352C112.387 81.0981 112.473 81.042 112.587 80.9679C112.649 80.9276 112.719 80.882 112.803 80.8313C112.657 80.576 112.517 80.3211 112.379 80.0687C112.087 79.5349 111.802 79.0122 111.469 78.5205C108.239 73.7431 103.623 70.8877 98.2599 69.1019C93.668 67.5726 89.2241 65.688 85.2084 62.9846C83.5843 61.8914 81.9938 61.9585 80.1922 62.0413C80.1733 62.1969 80.1508 62.3498 80.1285 62.5011C80.0833 62.8086 80.039 63.1093 80.0284 63.4108C79.8824 67.5686 80.2928 71.6711 81.4078 75.6849C84.1329 85.5041 90.0193 92.4107 99.8819 95.6173C100.666 95.872 101.465 96.0799 102.339 96.3071C102.772 96.4197 103.224 96.537 103.7 96.6671C103.512 96.7908 103.347 96.8999 103.198 96.9991C102.935 97.1737 102.719 97.3173 102.499 97.4545C94.108 102.658 94.3468 114.261 102.872 118.847C106.879 121.004 111.197 121.967 115.637 122.549C116.704 122.689 117.232 122.746 117.497 123.04C117.76 123.33 117.767 123.851 117.786 124.909C117.822 126.931 117.865 128.952 117.909 130.973C117.943 132.529 117.977 134.084 118.007 135.64C118.019 136.287 118.016 136.934 118.012 137.607C118.011 137.933 118.009 138.264 118.009 138.604C117.783 138.559 117.587 138.522 117.41 138.488C117.129 138.434 116.895 138.39 116.663 138.338C114.092 137.759 111.582 137.033 109.409 135.447C105.579 132.647 105.605 128.27 109.478 125.547C109.765 125.345 110.062 125.16 110.391 124.954C110.546 124.857 110.708 124.756 110.879 124.647C110.549 124.557 110.228 124.468 109.914 124.381C109.024 124.134 108.188 123.902 107.345 123.7C107.134 123.648 106.806 123.745 106.643 123.895C104.411 125.927 103.104 128.372 103.54 131.48C104.02 134.892 106.139 137.118 109.012 138.742C111.554 140.179 114.321 140.988 117.158 141.564C117.883 141.71 118.177 141.994 118.171 142.793C118.158 144.709 118.195 146.626 118.233 148.542C118.247 149.285 118.262 150.027 118.273 150.77C118.274 150.816 118.274 150.863 118.274 150.909C118.274 151.385 118.274 151.81 119.049 151.796C119.842 151.782 120.156 151.561 120.116 150.724C120.081 149.986 120.102 149.245 120.123 148.503C120.134 148.095 120.146 147.687 120.148 147.279C120.153 146.148 120.152 145.015 120.151 143.828C120.15 143.304 120.15 142.769 120.15 142.219C122.05 142.837 123.56 143.518 124.604 144.919C126.141 146.981 125.825 149.187 124.874 151.411C126.038 151.567 126.78 151.174 127.329 150.312C128.272 148.826 128.57 147.247 128.229 145.513C127.67 142.681 125.831 141.008 123.299 139.958C122.642 139.685 121.97 139.452 121.286 139.215C120.974 139.107 120.659 138.998 120.343 138.884C120.414 135.511 120.483 132.159 120.552 128.786C120.592 126.877 120.631 124.962 120.671 123.033C120.971 123.07 121.251 123.101 121.518 123.131C122.042 123.189 122.513 123.242 122.98 123.323C125.807 123.814 128.461 124.692 130.437 126.938C132.144 128.876 132.282 131.33 130.822 133.466C129.855 134.88 128.538 135.899 127.023 136.664C126.549 136.903 126.064 137.126 125.567 137.354C125.326 137.464 125.082 137.576 124.835 137.692C125.085 137.861 125.327 138.027 125.564 138.19C126.152 138.595 126.708 138.978 127.293 139.31C127.591 139.48 128.098 139.553 128.388 139.415C130.129 138.588 131.623 137.422 132.854 135.932C135.759 132.414 135.619 127.899 132.477 124.59C130.135 122.123 127.124 121.002 123.872 120.4C123.167 120.269 122.457 120.174 121.8 120.086C121.506 120.047 121.222 120.009 120.955 119.97V111.019C121.342 111.171 121.548 111.365 121.737 111.544C121.784 111.588 121.83 111.631 121.877 111.672C122.491 112.21 123.092 112.766 123.694 113.322C125.07 114.594 126.447 115.865 127.972 116.921C131.974 119.692 137.493 119.585 140.603 113.916C143.362 108.886 142.129 102.575 137.622 98.7707C137.037 98.2779 136.413 97.8328 135.74 97.3534C135.417 97.1225 135.082 96.8836 134.735 96.6277C134.893 96.5876 135.033 96.5516 135.161 96.5187C135.392 96.4591 135.583 96.4097 135.777 96.3652C140.793 95.2088 145.359 93.127 149.059 89.4803C156.548 82.1001 158.616 72.7999 158.32 62.7064C158.312 62.4834 158.116 62.0709 158.018 62.0729C157.67 62.083 157.301 62.0642 156.929 62.0452C155.998 61.9976 155.053 61.9493 154.399 62.3571C149.746 65.2539 144.84 67.5311 139.656 69.2775C134.93 70.868 130.802 73.4057 127.718 77.4155C127.168 78.1282 126.694 78.9 126.196 79.7118C125.96 80.0958 125.719 80.4887 125.462 80.8885C126.068 81.1219 126.614 81.3314 127.131 81.5301C127.588 81.7059 128.024 81.8732 128.46 82.0409C128.572 81.8459 128.675 81.6612 128.773 81.4846C128.972 81.1269 129.153 80.8023 129.355 80.4919C132.023 76.4071 135.887 73.9049 140.396 72.3539C145.343 70.6529 150.132 68.6322 154.596 65.8834C154.699 65.8211 154.812 65.7768 154.953 65.7217C155.026 65.6931 155.107 65.6615 155.198 65.6229C155.198 65.7541 155.202 65.8741 155.206 65.9862C155.214 66.2061 155.221 66.3956 155.192 66.58C155.06 67.4444 154.95 68.3152 154.841 69.1862C154.589 71.1823 154.338 73.1793 153.819 75.1027C151.427 83.9708 146.002 90.1019 137.053 92.8192C134.085 93.721 131.037 94.1354 127.941 94.2281C127.877 94.23 127.811 94.2281 127.745 94.2262C127.39 94.216 127.03 94.2057 127.003 94.7747C126.975 95.3838 126.94 95.9917 126.905 96.6143C126.893 96.8228 126.881 97.0329 126.869 97.2453C127.335 97.3598 127.712 97.4525 128.087 97.5453C130.689 98.1905 133.146 99.1555 135.275 100.835C139.281 103.994 140.126 109.415 137.225 113.379C135.966 115.1 134.062 115.893 132.033 115.242C130.685 114.808 129.355 114.143 128.193 113.33C125.474 111.43 123.347 108.921 121.482 106.198C121.245 105.855 121.142 105.346 121.15 104.918C121.229 100.521 121.33 96.1245 121.474 91.7279C121.486 91.3096 121.746 90.7926 122.06 90.5084C124.098 88.6634 124.158 85.6166 122.078 83.8406C121.533 83.3749 121.433 82.9881 121.648 82.331C123.315 77.2359 126.486 73.2952 130.857 70.2819C131.125 70.0964 131.585 70.1023 131.94 70.1458C133.519 70.3391 134.825 69.4433 135.139 67.9001C135.412 66.5543 134.462 65.1355 133.051 64.7764C131.694 64.431 130.316 65.2559 129.815 66.6747C129.703 66.9924 129.519 67.3594 129.257 67.539ZM117.478 111.402V119.741C117.294 119.716 117.111 119.692 116.927 119.667C114.269 119.312 111.584 118.953 108.993 117.965C112.263 116.343 114.78 113.869 117.21 111.28C117.298 111.319 117.389 111.36 117.478 111.402ZM113.736 151.843C112.276 149.093 112.215 146.458 114.559 143.966V143.964C114.296 143.892 114.058 143.827 113.836 143.767C113.493 143.674 113.187 143.591 112.882 143.506L112.876 143.505C110.95 142.969 110.936 142.965 110.275 144.923C109.476 147.291 109.577 149.499 111.516 151.348C112.128 151.932 112.805 152.191 113.736 151.843Z" fill="white"/>
</g>
<defs>
<filter id="filter0_d_18_916" x="0" y="0" width="238" height="238" filterUnits="userSpaceOnUse" color-interpolation-filters="sRGB">
<feFlood flood-opacity="0" result="BackgroundImageFix"/>
<feColorMatrix in="SourceAlpha" type="matrix" values="0 0 0 0 0 0 0 0 0 0 0 0 0 0 0 0 0 0 127 0" result="hardAlpha"/>
<feOffset dy="12"/>
<feGaussianBlur stdDeviation="17"/>
<feComposite in2="hardAlpha" operator="out"/>
<feColorMatrix type="matrix" values="0 0 0 0 0 0 0 0 0 0 0 0 0 0 0 0 0 0 0.25 0"/>
<feBlend mode="normal" in2="BackgroundImageFix" result="effect1_dropShadow_18_916"/>
<feBlend mode="normal" in="SourceGraphic" in2="effect1_dropShadow_18_916" result="shape"/>
</filter>
<radialGradient id="paint0_radial_18_916" cx="0" cy="0" r="1" gradientUnits="userSpaceOnUse" gradientTransform="translate(119.649 115.435) rotate(-134.045) scale(110.13 126.805)">
<stop stop-color="#3CBCEB"/>
<stop offset="1" stop-color="#0072B8"/>
</radialGradient>
</defs>
</svg>
